<svg xmlns="http://www.w3.org/2000/svg" xmlns:svg="http://www.w3.org/2000/svg" id="svg3815" width="299.237" height="159.6" version="1.1" viewBox="0 0 299.237 159.6"><metadata id="metadata3819"/><defs id="defs3792"><linearGradient id="linearGradient-1" x1="100.735" x2="100.735" y1="64.148" y2=".33" gradientTransform="scale(1.0984264,0.91039331)" gradientUnits="userSpaceOnUse"><stop id="stop3767" offset="0%" stop-color="#00aff0"/><stop id="stop3769" offset="100%" stop-color="green"/></linearGradient><linearGradient id="linearGradient-2" x1="54.671" x2="54.671" y1="109.449" y2=".138" gradientTransform="scale(0.69140365,1.4463331)" gradientUnits="userSpaceOnUse"><stop id="stop3772" offset="0%" stop-color="#326ce5"/><stop id="stop3774" offset="100%" stop-color="green"/></linearGradient><linearGradient id="linearGradient-3" x1="32978.17" x2="32978.17" y1="11380.418" y2="29302.601" gradientTransform="scale(0.7098117,1.4088243)" gradientUnits="userSpaceOnUse"><stop id="stop3777" offset="0%" stop-color="#326ce5"/><stop id="stop3779" offset="100%" stop-color="green"/></linearGradient><linearGradient id="linearGradient-4" x1="26890.099" x2="26890.099" y1="14976.861" y2="38741.647" gradientTransform="scale(0.94002539,1.063801)" gradientUnits="userSpaceOnUse"><stop id="stop3782" offset="0%" stop-color="#326ce5"/><stop id="stop3784" offset="100%" stop-color="green"/></linearGradient><linearGradient id="linearGradient-5" x1="178.779" x2="178.779" y1="164.862" y2="104.557" gradientTransform="scale(1.0336794,0.96741792)" gradientUnits="userSpaceOnUse"><stop id="stop3787" offset="0%" stop-color="#326ce5"/><stop id="stop3789" offset="100%" stop-color="#00aff0"/></linearGradient></defs><g id="Welcome" style="fill:none;fill-rule:evenodd;stroke:none;stroke-width:1" transform="translate(-0.02203344,-70)"><g id="about" transform="translate(-922,-458)" style="fill-rule:nonzero"><g id="edge" transform="translate(0,440)"><g id="CICD_Infinity_Symbol" transform="translate(922,88)"><path id="Shape" d="M 55.6,79.7 C 55.544274,75.351729 57.260847,71.168085 60.354599,68.112063 63.44835,65.05604 67.65274,63.390927 72,63.5 77.216647,63.292387 82.18407,65.738466 85.2,70 l -6.5,5 c -1.8,-2.2 -3.8,-3.6 -6.8,-3.6 -4.3,0 -7.4,3.7 -7.4,8.2 v 0.1 c 0,4.7 3.1,8.3 7.4,8.3 3.2,0 5.1,-1.5 7,-3.8 l 6.5,4.6 C 81.339064,94.629352 73.981692,97.173943 67.187031,95.099063 60.39237,93.024183 55.711634,86.803527 55.6,79.7 Z" style="fill:#f04100"/><polygon id="polygon3795" points="98.7 95.2 90.1 95.2 90.1 64.1 98.7 64.1" style="fill:#f04100"/><path id="path3797" d="m 187.3,79.7 c -0.0557,-4.348271 1.66085,-8.531915 4.7546,-11.587937 3.09375,-3.056023 7.29814,-4.721136 11.6454,-4.612063 5.21665,-0.207613 10.18407,2.238466 13.2,6.5 l -6.5,5 c -1.8,-2.2 -3.8,-3.6 -6.8,-3.6 -4.3,0 -7.4,3.7 -7.4,8.2 v 0.1 c 0,4.7 3.1,8.3 7.4,8.3 3.2,0 5.1,-1.5 7,-3.8 l 6.5,4.6 c -4.06094,5.829352 -11.41831,8.373943 -18.21297,6.299063 C 192.09237,93.024183 187.41163,86.803527 187.3,79.7 Z" style="fill:#00aff0"/><path id="path3799" d="m 221.6,64.1 h 12 c 11.1,0 17.5,6.4 17.5,15.3 v 0.1 c 0,9 -6.5,15.6 -17.7,15.6 h -11.8 z m 12.1,23.4 c 5.1,0 8.6,-2.8 8.6,-7.9 v -0.1 c 0,-5 -3.4,-7.9 -8.6,-7.9 h -3.5 v 15.8 h 3.5 z" style="fill:#00aff0"/><path id="path3801" d="m 75.6,11.1 9,9 c 22.97697,1.889045 42.83948,16.776213 51.1,38.3 2.16736,-8.311301 5.5362,-16.261764 10,-23.6 C 132.15726,14.984349 110.41667,2.3145831 86.5,0.3 Z" style="fill:url(#linearGradient-1)"/><path id="path3803" d="M 75.6,148.6 64.7,137.7 C 37.112279,130.58509 18.359852,105.01483 19.86492,76.564185 21.369989,48.113543 42.715586,24.664504 70.9,20.5 L 61.5,11.1 68.6,4 72.4,0.2 C 32.624145,3.934335 1.7314274,36.493687 0.09030915,76.410734 -1.5508091,116.32778 26.564927,151.31316 65.9,158.3 Z" style="fill:url(#linearGradient-2)"/><path id="path3805" d="m 222.2,0 11.1,11.1 -7.1,7.1 -1.9,1.9 c 30.18112,2.479689 53.76024,27.101925 54.93193,57.362063 C 280.40361,107.7222 258.79901,134.09398 228.9,138.9 l -9.7,9.7 10.3,10.3 c 41.25926,-5.22916 71.58232,-41.27306 69.67368,-82.818552 C 297.26505,34.535961 263.76492,1.4241438 222.2,0 Z" style="fill:url(#linearGradient-3)"/><path id="path3807" d="m 209.6,20.7 9.6,-9.6 -10.5,-10.5 c -39.5909,5.3436731 -69.12345,39.150115 -69.1,79.1 -0.049,32.67331 -26.23215,59.30102 -58.9,59.9 l 9,9 -7.1,7.1 -3.9,3.90001 1,-1e-5 c 21.16753,0.0106 41.47114,-8.39345 56.43885,-23.36115 C 151.10655,121.27114 159.51062,100.96753 159.5,79.8 159.60769,50.538527 180.751,25.59701 209.6,20.7 Z" style="fill:url(#linearGradient-4)"/><path id="path3809" d="m 205.1,148.6 7.1,-7.1 2.2,-2.2 c -22.85087,-2.03633 -42.55446,-16.89159 -50.8,-38.3 -2.18553,8.33664 -5.55301,16.31756 -10,23.7 14.17363,20.74929 37.2956,33.60719 62.4,34.7 z" style="fill:url(#linearGradient-5)"/></g></g></g></g></svg>